<svg xmlns="http://www.w3.org/2000/svg" xmlns:xlink="http://www.w3.org/1999/xlink" width="2032" zoomAndPan="magnify" viewBox="0 0 1524 1529.999932" height="2040" preserveAspectRatio="xMidYMid meet" version="1.0"><metadata><ContainsAiGeneratedContent>Yes</ContainsAiGeneratedContent></metadata><path fill="#fdf151" d="M 432.304688 1240.007812 L 136.992188 278.285156 L 1157.292969 92.445312 L 1452.597656 1054.167969 Z M 432.304688 1240.007812 " fill-opacity="1" fill-rule="nonzero"/><path fill="#0b122d" d="M 432.292969 1257.332031 C 424.820312 1257.332031 418.023438 1252.46875 415.753906 1245.09375 L 120.449219 283.371094 C 118.996094 278.640625 119.636719 273.515625 122.207031 269.292969 C 124.773438 265.066406 129.03125 262.140625 133.894531 261.25 L 1154.195312 75.40625 C 1162.832031 73.84375 1171.261719 78.96875 1173.839844 87.359375 L 1469.144531 1049.085938 C 1470.597656 1053.8125 1469.957031 1058.9375 1467.390625 1063.164062 C 1464.824219 1067.386719 1460.566406 1070.3125 1455.703125 1071.203125 L 435.414062 1257.042969 C 434.367188 1257.230469 433.324219 1257.324219 432.296875 1257.324219 Z M 159.265625 291.832031 L 444.332031 1220.21875 L 1430.332031 1040.628906 L 1145.261719 112.238281 Z M 159.265625 291.832031 " fill-opacity="1" fill-rule="nonzero"/><path fill="#0b122d" d="M 1025.144531 876.65625 C 1053.976562 903.109375 1084.121094 928 1129.269531 919.773438 C 1167.1875 912.863281 1181.628906 891.476562 1174.082031 866.898438 C 1165.054688 837.484375 1141.269531 830.789062 1094.292969 821.265625 L 1068.601562 816.242188 C 994.488281 801.871094 940.433594 776.792969 918.980469 706.933594 C 899.214844 642.550781 936.457031 584.03125 1018.167969 569.148438 C 1076.355469 558.550781 1123.992188 569.933594 1169.421875 614.179688 L 1111.355469 670.089844 C 1087.578125 646.550781 1067.4375 639.242188 1041.167969 644.027344 C 1014.355469 648.910156 1002.277344 667.953125 1008.671875 688.789062 C 1016.582031 714.539062 1036.78125 721.867188 1080.929688 730.664062 L 1106.625 735.683594 C 1194.011719 752.742188 1247.675781 776.648438 1269.691406 848.351562 C 1293.417969 925.609375 1241.6875 979.746094 1154.789062 995.570312 C 1069.789062 1011.050781 1009.179688 979.636719 967.03125 934.757812 L 1025.136719 876.644531 Z M 1025.144531 876.65625 " fill-opacity="1" fill-rule="nonzero"/><path fill="#0b122d" d="M 1112.773438 1016.8125 C 1052.070312 1016.8125 997.96875 992.988281 954.425781 946.625 C 948.019531 939.808594 948.1875 929.136719 954.800781 922.519531 L 1012.90625 864.40625 C 1019.457031 857.84375 1030.015625 857.617188 1036.84375 863.890625 C 1065.242188 889.953125 1089.875 909.359375 1126.171875 902.738281 C 1141.355469 899.976562 1152.128906 894.503906 1156.480469 887.332031 C 1159.058594 883.089844 1159.40625 878.070312 1157.542969 871.984375 C 1151.742188 853.097656 1138.121094 847.816406 1090.855469 838.242188 L 1065.277344 833.234375 C 995.914062 819.785156 928.15625 795.785156 902.433594 712.019531 C 891.910156 677.742188 895.503906 643.414062 912.554688 615.363281 C 932.199219 583.035156 968.605469 560.578125 1015.070312 552.113281 C 1081.417969 540.046875 1134.300781 555.804688 1181.496094 601.78125 C 1184.855469 605.050781 1186.746094 609.550781 1186.730469 614.234375 C 1186.714844 618.921875 1184.804688 623.40625 1181.421875 626.664062 L 1123.355469 682.574219 C 1116.589844 689.085938 1105.863281 689.023438 1099.179688 682.40625 C 1076.824219 660.277344 1062.121094 657.828125 1044.265625 661.078125 C 1035.5625 662.660156 1029.144531 666.214844 1026.183594 671.082031 C 1024.046875 674.589844 1023.726562 678.84375 1025.21875 683.71875 C 1029.761719 698.5 1038.5 704.558594 1084.316406 713.6875 L 1109.953125 718.703125 C 1200.605469 736.398438 1261.722656 763.414062 1286.246094 843.28125 C 1297.40625 879.605469 1294.136719 913.878906 1276.804688 942.394531 C 1255.402344 977.613281 1213.171875 1002.554688 1157.898438 1012.625 C 1142.511719 1015.425781 1127.453125 1016.824219 1112.78125 1016.824219 Z M 991.582031 934.707031 C 1035.742188 975.117188 1089.523438 989.867188 1151.691406 978.542969 C 1197.097656 970.269531 1231.023438 951.042969 1247.21875 924.398438 C 1259.433594 904.296875 1261.429688 880.425781 1253.144531 853.445312 C 1233.511719 789.503906 1185.339844 768.703125 1103.304688 752.691406 L 1077.609375 747.660156 C 1034.566406 739.085938 1003.277344 730.21875 992.125 693.882812 C 987.726562 679.5625 989.3125 665.066406 996.597656 653.082031 C 1004.765625 639.644531 1019.488281 630.382812 1038.058594 626.992188 C 1065.339844 622.035156 1087.835938 627.875 1110.929688 646.460938 L 1143.984375 614.632812 C 1108.5 585.667969 1070.859375 577.144531 1021.261719 586.1875 C 984.667969 592.851562 956.566406 609.605469 942.128906 633.355469 C 930.117188 653.117188 927.832031 676.800781 935.519531 701.847656 C 954.742188 764.460938 1003.933594 786.058594 1071.882812 799.238281 L 1097.605469 804.269531 C 1140.773438 813.019531 1177.953125 820.558594 1190.625 861.8125 C 1195.429688 877.457031 1193.851562 892.503906 1186.054688 905.324219 C 1179.285156 916.460938 1164.480469 930.960938 1132.367188 936.8125 C 1084.773438 945.460938 1050.375 921.878906 1025.765625 900.507812 L 991.574219 934.699219 Z M 991.582031 934.707031 " fill-opacity="1" fill-rule="nonzero"/><path fill="#0b122d" d="M 697.449219 938.65625 C 719.222656 960.25 746.734375 974.898438 778.082031 969.191406 C 808.066406 963.730469 821.894531 949.421875 808.566406 906.007812 L 721.703125 623.125 L 816.167969 605.917969 L 907.230469 902.472656 C 934.847656 992.421875 892.066406 1043.433594 811.234375 1058.152344 C 738.195312 1071.457031 671.15625 1034.410156 636.371094 994.992188 L 697.449219 938.648438 Z M 697.449219 938.65625 " fill-opacity="1" fill-rule="nonzero"/><path fill="#0b122d" d="M 780.078125 1078.296875 C 711.984375 1078.296875 654.589844 1041.8125 623.394531 1006.460938 C 617.164062 999.402344 617.71875 988.652344 624.636719 982.269531 L 685.714844 925.925781 C 692.515625 919.648438 703.058594 919.835938 709.632812 926.359375 C 730.949219 947.496094 752.929688 956.167969 774.976562 952.152344 C 785.535156 950.226562 792.070312 947.296875 794.421875 943.441406 C 796.289062 940.363281 798.464844 932.074219 792.019531 911.09375 L 705.15625 628.210938 C 703.703125 623.484375 704.34375 618.359375 706.910156 614.132812 C 709.480469 609.90625 713.738281 606.980469 718.601562 606.089844 L 813.0625 588.882812 C 821.714844 587.300781 830.128906 592.453125 832.707031 600.839844 L 923.769531 897.394531 C 938.035156 943.839844 935.695312 983.136719 916.816406 1014.183594 C 897.886719 1045.332031 862.445312 1066.429688 814.324219 1075.199219 C 802.664062 1077.320312 791.222656 1078.304688 780.066406 1078.304688 Z M 661.242188 995.609375 C 695.78125 1027.207031 750.953125 1051.527344 808.140625 1041.113281 C 846.242188 1034.175781 873.601562 1018.636719 887.25 996.179688 C 900.761719 973.945312 901.914062 944.132812 890.6875 907.554688 L 804.140625 625.707031 L 743.976562 636.660156 L 825.113281 900.910156 C 833.285156 927.507812 832.925781 946.734375 824 961.421875 C 813.585938 978.550781 794.574219 983.777344 781.183594 986.210938 C 752.445312 991.453125 723.820312 983.105469 697.640625 962.03125 L 661.25 995.605469 Z M 661.242188 995.609375 " fill-opacity="1" fill-rule="nonzero"/><path fill="#fdf151" d="M 136.992188 278.285156 L 38.378906 440.082031 L 333.679688 1401.804688 L 432.304688 1240.007812 Z M 136.992188 278.285156 " fill-opacity="1" fill-rule="nonzero"/><path fill="#0b122d" d="M 333.6875 1419.121094 C 332.972656 1419.121094 332.25 1419.074219 331.523438 1418.988281 C 324.765625 1418.140625 319.136719 1413.40625 317.132812 1406.890625 L 21.828125 445.160156 C 20.375 440.425781 21.015625 435.289062 23.59375 431.058594 L 122.210938 269.261719 C 125.757812 263.445312 132.355469 260.246094 139.144531 261.09375 C 145.902344 261.941406 151.53125 266.675781 153.535156 273.191406 L 448.84375 1234.917969 C 450.296875 1239.648438 449.65625 1244.789062 447.078125 1249.019531 L 348.457031 1410.816406 C 345.289062 1416.011719 339.664062 1419.117188 333.679688 1419.117188 Z M 57.210938 442.441406 L 338.933594 1359.933594 L 413.46875 1237.648438 L 131.75 320.15625 L 57.214844 442.441406 Z M 57.210938 442.441406 " fill-opacity="1" fill-rule="nonzero"/><path fill="#fdf151" d="M 1452.597656 1054.167969 L 1353.980469 1215.972656 L 333.679688 1401.804688 L 432.304688 1240.007812 Z M 1452.597656 1054.167969 " fill-opacity="1" fill-rule="nonzero"/><path fill="#0b122d" d="M 333.679688 1419.121094 C 328.042969 1419.121094 322.679688 1416.363281 319.414062 1411.605469 C 315.554688 1405.976562 315.351562 1398.613281 318.90625 1392.789062 L 417.527344 1230.992188 C 420.101562 1226.777344 424.347656 1223.855469 429.203125 1222.96875 L 1449.5 1037.128906 C 1456.203125 1035.898438 1463.011719 1038.746094 1466.867188 1044.363281 C 1470.726562 1049.992188 1470.929688 1057.355469 1467.375 1063.179688 L 1368.757812 1224.976562 C 1366.183594 1229.191406 1361.9375 1232.109375 1357.082031 1233 L 336.785156 1418.839844 C 335.753906 1419.027344 334.714844 1419.113281 333.679688 1419.113281 Z M 443.039062 1255.65625 L 368.558594 1377.855469 L 1343.246094 1200.328125 L 1417.726562 1078.128906 Z M 443.039062 1255.65625 " fill-opacity="1" fill-rule="nonzero"/></svg>