<svg xmlns="http://www.w3.org/2000/svg" xmlns:xlink="http://www.w3.org/1999/xlink" width="2032" zoomAndPan="magnify" viewBox="0 0 1524 1529.999932" height="2040" preserveAspectRatio="xMidYMid meet" version="1.0"><defs><clipPath id="cf0bd23dac"><path d="M 180.222656 178.085938 L 1343.472656 178.085938 L 1343.472656 1179 L 180.222656 1179 Z M 180.222656 178.085938 " clip-rule="nonzero"/></clipPath><clipPath id="6c962b82ef"><path d="M 437 535 L 1088 535 L 1088 1351.835938 L 437 1351.835938 Z M 437 535 " clip-rule="nonzero"/></clipPath></defs><g clip-path="url(#cf0bd23dac)"><path fill="#d9d9d9" d="M 310.335938 1160.878906 C 310.761719 914.464844 310.601562 668.054688 310.65625 421.640625 C 310.65625 416.253906 311.402344 410.816406 311.933594 403.9375 C 317.214844 406.550781 320.148438 407.722656 322.8125 409.324219 C 464.496094 491.121094 606.179688 572.921875 747.648438 655.203125 C 758.15625 661.335938 765.886719 661.921875 776.5 655.628906 C 830.304688 623.847656 884.535156 592.8125 938.660156 561.511719 C 943.351562 558.84375 948.363281 556.605469 955.457031 553.085938 L 955.457031 571.960938 C 955.457031 628.648438 955.777344 685.332031 955.296875 742.015625 C 955.136719 752.253906 957.910156 758.546875 967.082031 763.71875 C 1003.074219 783.875 1038.644531 804.777344 1074.53125 825.308594 C 1077.890625 827.226562 1081.78125 828.132812 1087.328125 830.214844 L 1087.328125 812.351562 C 1087.328125 705.859375 1087.542969 599.476562 1087.007812 492.988281 C 1086.953125 480.191406 1090.792969 472.777344 1101.992188 466.699219 C 1131.265625 450.703125 1159.847656 433.585938 1188.859375 417 C 1196.429688 412.683594 1204.054688 408.628906 1214.507812 402.921875 L 1214.507812 421.585938 C 1214.507812 673.707031 1214.082031 925.824219 1214.933594 1178.050781 L 1343.710938 1178.050781 L 1343.710938 178.425781 C 1340.566406 178.695312 1337.527344 179.386719 1335.234375 180.71875 C 1237.808594 236.496094 1140.707031 292.863281 1043.546875 349.066406 C 953.75 401.003906 863.953125 453.101562 773.832031 504.507812 C 771.167969 506.054688 767.433594 507.011719 763.808594 507.332031 C 763.648438 507.386719 763.59375 507.386719 763.488281 507.332031 C 759.914062 507.707031 756.394531 507.28125 753.996094 505.945312 L 180.222656 182.691406 L 180.222656 1160.878906 Z M 310.335938 1160.878906 " fill-opacity="1" fill-rule="nonzero"/></g><g clip-path="url(#6c962b82ef)"><path fill="#d9d9d9" d="M 1087.753906 1049.484375 C 1087.808594 1035.035156 1083.382812 1026.875 1070.585938 1019.515625 C 908.050781 926.144531 745.945312 832.027344 583.464844 738.601562 C 572.746094 732.46875 568.90625 725.75 569.28125 713.644531 C 570.132812 683.464844 569.28125 653.28125 569.757812 623.101562 C 569.917969 613.609375 567.199219 607.53125 558.5625 602.675781 C 522.566406 582.46875 486.945312 561.511719 451.113281 540.980469 C 447.699219 539.007812 443.808594 537.835938 437.886719 535.328125 C 437.886719 543.167969 437.886719 548.820312 437.886719 554.472656 C 437.886719 632.328125 438.207031 710.179688 437.621094 788.085938 C 437.515625 801.523438 441.832031 808.777344 453.457031 815.441406 C 616.417969 909.082031 779.058594 1003.359375 941.964844 1097.15625 C 951.832031 1102.863281 955.882812 1108.941406 955.777344 1120.671875 C 955.5625 1153.628906 955.507812 1186.636719 955.457031 1219.589844 C 878.933594 1219.535156 766.207031 1219.535156 569.546875 1219.429688 C 569.597656 1159.972656 569.597656 1100.515625 569.867188 1041.058594 C 569.917969 1029.859375 566.078125 1023.890625 556.75 1018.609375 C 521.234375 998.613281 486.09375 977.921875 450.738281 957.660156 C 447.433594 955.738281 443.539062 954.832031 437.886719 952.648438 C 437.886719 960.753906 437.886719 966.511719 437.886719 972.21875 C 437.886719 1081.640625 437.460938 1191.007812 437.886719 1300.429688 L 437.886719 1351.410156 C 437.941406 1351.410156 438.046875 1351.410156 438.101562 1351.410156 C 438.101562 1351.460938 438.101562 1351.515625 438.101562 1351.570312 L 569.28125 1351.570312 C 569.28125 1351.515625 569.28125 1351.515625 569.28125 1351.460938 C 766.046875 1351.515625 878.828125 1351.621094 955.402344 1351.515625 C 955.402344 1351.515625 955.402344 1351.515625 955.402344 1351.566406 L 1087.0625 1351.566406 C 1087.0625 1351.410156 1087.0625 1351.25 1087.0625 1351.089844 C 1087.273438 1351.089844 1087.488281 1351.089844 1087.703125 1351.089844 L 1087.703125 1219.910156 C 1087.648438 1219.910156 1087.59375 1219.910156 1087.59375 1219.910156 C 1087.59375 1163.121094 1087.433594 1106.273438 1087.753906 1049.484375 Z M 1087.753906 1049.484375 " fill-opacity="1" fill-rule="nonzero"/></g></svg>