<svg xmlns="http://www.w3.org/2000/svg" xmlns:xlink="http://www.w3.org/1999/xlink" width="586" zoomAndPan="magnify" viewBox="0 0 439.5 187.499995" height="250" preserveAspectRatio="xMidYMid meet" version="1.0"><defs><g/><clipPath id="1391d46c80"><path d="M 25.15625 36 L 129.449219 36 L 129.449219 139.351562 L 25.15625 139.351562 Z M 25.15625 36 " clip-rule="nonzero"/></clipPath></defs><g clip-path="url(#1391d46c80)"><path fill="#38b6ff" d="M 66.691406 39.167969 C 73.039062 35.074219 81.75 35.0625 88.085938 39.175781 C 94.15625 42.804688 97.996094 49.667969 98.101562 56.722656 C 103.152344 56.769531 108.207031 56.691406 113.257812 56.75 C 115.976562 56.539062 118.542969 58.722656 118.695312 61.453125 C 122.121094 85.382812 125.539062 109.324219 128.894531 133.265625 C 129.601562 136.324219 126.941406 139.507812 123.785156 139.285156 C 92.839844 139.335938 61.882812 139.324219 30.925781 139.292969 C 27.789062 139.496094 25.148438 136.351562 25.804688 133.304688 C 29.203125 109.375 32.617188 85.433594 36.054688 61.511719 C 36.230469 58.800781 38.714844 56.554688 41.445312 56.75 C 46.515625 56.683594 51.585938 56.777344 56.648438 56.738281 C 56.785156 49.675781 60.605469 42.804688 66.691406 39.167969 Z M 66.894531 56.699219 C 73.890625 56.777344 80.878906 56.738281 87.875 56.699219 C 87.59375 51.242188 83.027344 46.25 77.382812 46.414062 C 71.753906 46.25 67.167969 51.234375 66.894531 56.699219 Z M 66.894531 56.699219 " fill-opacity="1" fill-rule="nonzero"/></g><g fill="#ffffff" fill-opacity="1"><g transform="translate(44.447736, 129.397992)"><g><path d="M 34.359375 -22.28125 L 34.359375 -32.5 L 60.6875 -32.5 L 60.6875 -8.390625 C 58.15625 -5.910156 54.460938 -3.71875 49.609375 -1.8125 C 44.765625 0.0820312 39.832031 1.03125 34.8125 1.03125 C 28.46875 1.03125 22.9375 -0.296875 18.21875 -2.953125 C 13.507812 -5.617188 9.96875 -9.414062 7.59375 -14.34375 C 5.226562 -19.28125 4.046875 -24.65625 4.046875 -30.46875 C 4.046875 -36.476562 5.238281 -41.835938 7.625 -46.546875 C 10.007812 -51.265625 13.445312 -54.957031 17.9375 -57.625 C 22.4375 -60.300781 27.828125 -61.640625 34.109375 -61.640625 C 41.691406 -61.640625 47.597656 -60.0625 51.828125 -56.90625 C 56.054688 -53.75 58.765625 -49.398438 59.953125 -43.859375 L 47.75 -41.59375 C 46.894531 -44.507812 45.296875 -46.828125 42.953125 -48.546875 C 40.609375 -50.273438 37.660156 -51.140625 34.109375 -51.140625 C 28.816406 -51.140625 24.582031 -49.441406 21.40625 -46.046875 C 18.238281 -42.660156 16.65625 -37.644531 16.65625 -31 C 16.65625 -23.8125 18.253906 -18.410156 21.453125 -14.796875 C 24.648438 -11.191406 28.84375 -9.390625 34.03125 -9.390625 C 36.5625 -9.390625 39.128906 -9.894531 41.734375 -10.90625 C 44.335938 -11.925781 46.535156 -13.140625 48.328125 -14.546875 L 48.328125 -22.28125 Z M 34.359375 -22.28125 "/></g></g></g><g fill="#000000" fill-opacity="1"><g transform="translate(125.154214, 130.44824)"><g><path d="M 2.9375 -24.265625 C 2.9375 -28.316406 3.441406 -31.847656 4.453125 -34.859375 C 5.472656 -37.878906 7.109375 -40.617188 9.359375 -43.078125 C 11.617188 -45.546875 14.171875 -47.296875 17.015625 -48.328125 C 19.859375 -49.367188 23.097656 -49.890625 26.734375 -49.890625 C 33.941406 -49.890625 39.710938 -47.648438 44.046875 -43.171875 C 48.390625 -38.703125 50.5625 -32.46875 50.5625 -24.46875 C 50.5625 -16.5625 48.398438 -10.363281 44.078125 -5.875 C 39.765625 -1.394531 34.03125 0.84375 26.875 0.84375 C 19.550781 0.84375 13.726562 -1.382812 9.40625 -5.84375 C 5.09375 -10.3125 2.9375 -16.453125 2.9375 -24.265625 Z M 13.15625 -24.53125 C 13.15625 -19 14.445312 -14.789062 17.03125 -11.90625 C 19.625 -9.03125 22.878906 -7.59375 26.796875 -7.59375 C 30.773438 -7.59375 34.015625 -9.019531 36.515625 -11.875 C 39.023438 -14.726562 40.28125 -18.988281 40.28125 -24.65625 C 40.28125 -30.28125 39.046875 -34.472656 36.578125 -37.234375 C 34.117188 -40.003906 30.859375 -41.390625 26.796875 -41.390625 C 22.722656 -41.390625 19.429688 -39.992188 16.921875 -37.203125 C 14.410156 -34.421875 13.15625 -30.195312 13.15625 -24.53125 Z M 13.15625 -24.53125 "/></g></g></g><g fill="#000000" fill-opacity="1"><g transform="translate(178.513121, 128.880242)"><g><path d="M 2.078125 -13.390625 L 14.59375 -15.296875 C 15.675781 -10.347656 19.019531 -7.875 24.625 -7.875 C 27.363281 -7.875 29.523438 -8.3125 31.109375 -9.1875 C 32.703125 -10.070312 33.5 -11.359375 33.5 -13.046875 C 33.5 -13.953125 33.164062 -14.722656 32.5 -15.359375 C 31.84375 -15.992188 30.484375 -16.519531 28.421875 -16.9375 C 18.398438 -19.175781 12.066406 -21.191406 9.421875 -22.984375 C 5.671875 -25.515625 3.796875 -29.050781 3.796875 -33.59375 C 3.796875 -37.632812 5.410156 -41.039062 8.640625 -43.8125 C 11.867188 -46.582031 16.875 -47.96875 23.65625 -47.96875 C 30.039062 -47.96875 34.800781 -46.925781 37.9375 -44.84375 C 41.082031 -42.769531 43.226562 -39.679688 44.375 -35.578125 L 32.671875 -33.421875 C 31.671875 -37.222656 28.722656 -39.125 23.828125 -39.125 C 18.203125 -39.125 15.390625 -37.828125 15.390625 -35.234375 C 15.390625 -33.898438 16.332031 -32.875 18.21875 -32.15625 C 20.101562 -31.4375 23.429688 -30.53125 28.203125 -29.4375 C 34.710938 -27.9375 39.300781 -26.125 41.96875 -24 C 44.632812 -21.882812 45.96875 -18.773438 45.96875 -14.671875 C 45.96875 -10.367188 44.175781 -6.660156 40.59375 -3.546875 C 37.019531 -0.441406 31.695312 1.109375 24.625 1.109375 C 18.226562 1.109375 13.15625 -0.191406 9.40625 -2.796875 C 5.664062 -5.410156 3.222656 -8.941406 2.078125 -13.390625 Z M 2.078125 -13.390625 "/></g></g></g><g fill="#000000" fill-opacity="1"><g transform="translate(228.855345, 128.880242)"><g><path d="M 18.828125 -64.796875 L 18.828125 -41.015625 C 22.867188 -45.648438 27.671875 -47.96875 33.234375 -47.96875 C 36.128906 -47.96875 38.722656 -47.441406 41.015625 -46.390625 C 43.316406 -45.347656 45.035156 -43.992188 46.171875 -42.328125 C 47.304688 -40.660156 48.085938 -38.832031 48.515625 -36.84375 C 48.941406 -34.851562 49.15625 -31.753906 49.15625 -27.546875 L 49.15625 0 L 36.734375 0 L 36.734375 -24.796875 C 36.734375 -29.691406 36.507812 -32.800781 36.0625 -34.125 C 35.625 -35.445312 34.800781 -36.5 33.59375 -37.28125 C 32.382812 -38.0625 30.867188 -38.453125 29.046875 -38.453125 C 27.015625 -38.453125 25.175781 -37.957031 23.53125 -36.96875 C 21.894531 -35.988281 20.703125 -34.488281 19.953125 -32.46875 C 19.203125 -30.445312 18.828125 -27.460938 18.828125 -23.515625 L 18.828125 0 L 6.40625 0 L 6.40625 -64.796875 Z M 18.828125 -64.796875 "/></g></g></g><g fill="#000000" fill-opacity="1"><g transform="translate(284.147813, 128.880242)"><g><path d="M 3.625 -24.1875 C 3.625 -28.28125 4.632812 -32.253906 6.65625 -36.109375 C 8.675781 -39.972656 11.554688 -42.914062 15.296875 -44.9375 C 19.035156 -46.957031 23.207031 -47.96875 27.8125 -47.96875 C 34.90625 -47.96875 40.722656 -45.660156 45.265625 -41.046875 C 49.804688 -36.429688 52.078125 -30.632812 52.078125 -23.65625 C 52.078125 -16.519531 49.773438 -10.609375 45.171875 -5.921875 C 40.578125 -1.234375 34.816406 1.109375 27.890625 1.109375 C 23.585938 1.109375 19.476562 0.125 15.5625 -1.84375 C 11.644531 -3.820312 8.675781 -6.675781 6.65625 -10.40625 C 4.632812 -14.132812 3.625 -18.726562 3.625 -24.1875 Z M 16.40625 -23.421875 C 16.40625 -18.796875 17.5 -15.242188 19.6875 -12.765625 C 21.882812 -10.296875 24.617188 -9.0625 27.890625 -9.0625 C 31.078125 -9.0625 33.773438 -10.296875 35.984375 -12.765625 C 38.191406 -15.242188 39.296875 -18.828125 39.296875 -23.515625 C 39.296875 -28.109375 38.191406 -31.644531 35.984375 -34.125 C 33.773438 -36.601562 31.078125 -37.84375 27.890625 -37.84375 C 24.617188 -37.84375 21.882812 -36.601562 19.6875 -34.125 C 17.5 -31.644531 16.40625 -28.078125 16.40625 -23.421875 Z M 16.40625 -23.421875 "/></g></g></g><g fill="#000000" fill-opacity="1"><g transform="translate(339.440281, 128.880242)"><g><path d="M 6.140625 -46.984375 L 17.71875 -46.984375 L 17.71875 -40 C 19.257812 -42.363281 21.3125 -44.28125 23.875 -45.75 C 26.4375 -47.226562 29.25 -47.96875 32.3125 -47.96875 C 37.820312 -47.96875 42.476562 -45.84375 46.28125 -41.59375 C 50.082031 -37.351562 51.984375 -31.398438 51.984375 -23.734375 C 51.984375 -15.867188 50.0625 -9.757812 46.21875 -5.40625 C 42.375 -1.0625 37.707031 1.109375 32.21875 1.109375 C 29.625 1.109375 27.289062 0.59375 25.21875 -0.4375 C 23.144531 -1.46875 20.925781 -3.253906 18.5625 -5.796875 L 18.5625 17.8125 L 6.140625 17.8125 Z M 18.484375 -24.265625 C 18.484375 -19.023438 19.519531 -15.132812 21.59375 -12.59375 C 23.664062 -10.0625 26.222656 -8.796875 29.265625 -8.796875 C 32.148438 -8.796875 34.539062 -9.953125 36.4375 -12.265625 C 38.34375 -14.578125 39.296875 -18.375 39.296875 -23.65625 C 39.296875 -28.570312 38.316406 -32.222656 36.359375 -34.609375 C 34.398438 -36.992188 31.929688 -38.1875 28.953125 -38.1875 C 25.941406 -38.1875 23.441406 -37.015625 21.453125 -34.671875 C 19.472656 -32.335938 18.484375 -28.867188 18.484375 -24.265625 Z M 18.484375 -24.265625 "/></g></g></g></svg>